<?xml version="1.0" encoding="utf-8"?>
<!-- Generator: Adobe Illustrator 19.1.0, SVG Export Plug-In . SVG Version: 6.00 Build 0)  -->
<svg version="1.1" id="Layer_1" xmlns="http://www.w3.org/2000/svg" xmlns:xlink="http://www.w3.org/1999/xlink" x="0px" y="0px"
	 viewBox="0 0 64 64" enable-background="new 0 0 64 64" xml:space="preserve">
<g id="Down-arrow">
	<path d="M17.2929993,29.7070007c-0.3906994-0.3906002-0.3906994-1.0234013,0-1.4140015
		c0.3906002-0.3906002,1.0234013-0.3906002,1.4140015,0L32,41.5858994l13.2929993-13.2929001
		c0.3905983-0.3906002,1.0233994-0.3906002,1.4140015,0C46.902298,28.4883003,47,28.7441998,47,29
		c0,0.2558994-0.097702,0.5116997-0.2929993,0.7070007l-14,14c-0.3906021,0.3906975-1.0234013,0.3906975-1.4140015,0
		L17.2929993,29.7070007z"/>
	<path d="M32,64c17.6730957,0,32-14.3269005,32-32S49.6730957,0,32,0C14.3268003,0,0,14.3268995,0,32S14.3268003,64,32,64z M32,62
		C15.4579,62,2,48.542099,2,32C2,15.4580002,15.4579,2,32,2s30,13.4580002,30,30C62,48.542099,48.542099,62,32,62z"/>
</g>
<g>
</g>
<g>
</g>
<g>
</g>
<g>
</g>
<g>
</g>
<g>
</g>
<g>
</g>
<g>
</g>
<g>
</g>
<g>
</g>
<g>
</g>
<g>
</g>
<g>
</g>
<g>
</g>
<g>
</g>
</svg>
